<?xml version="1.0" encoding="utf-8"?>
<!-- Generator: Adobe Illustrator 14.0.0, SVG Export Plug-In . SVG Version: 6.00 Build 43363)  -->
<!DOCTYPE svg PUBLIC "-//W3C//DTD SVG 1.1//EN" "http://www.w3.org/Graphics/SVG/1.1/DTD/svg11.dtd">
<svg version="1.1" id="Layer_1" xmlns="http://www.w3.org/2000/svg" xmlns:xlink="http://www.w3.org/1999/xlink" x="0px" y="0px"
	 width="411.023px" height="470.654px" viewBox="0 0 411.023 470.654" enable-background="new 0 0 411.023 470.654"
	 xml:space="preserve">
<path fill="#ffffff" d="M49.536,220.575l-5.202-1.605c1.187-1.769,2.504-3.907,3.009-7.405c0.79-5.474-1.649-9.008-8.186-11.037
	L0,188.437l0.954-6.615l39.743,12.332c9.881,3.056,13.229,9.981,12.076,17.963C52.039,217.211,50.57,219.327,49.536,220.575"/>
<polygon fill="#ffffff" points="13.144,140.779 25.649,111.618 30.299,114.614 20.428,137.633 36.436,147.674 44.49,128.892
	49.171,131.817 41.116,150.6 58.163,161.337 68.7,136.764 73.379,139.69 60.209,170.406 "/>
<polygon fill="#ffffff" points="48.204,76.179 52.964,71.489 87.351,100.479 69.763,54.937 72.827,51.917 108.637,79.724
	89.955,35.042 94.497,30.566 116.903,85.597 112.472,89.964 78.285,63.147 95.016,107.163 90.747,111.368 "/>
<polygon fill="#ffffff" points="137.958,11.39 168.189,1.762 168.966,7.239 145.103,14.838 147.985,33.512 167.458,27.311
	168.308,32.765 148.835,38.965 151.873,58.88 177.346,50.768 178.195,56.221 146.354,66.362 "/>
<polygon fill="#ffffff" points="216.709,0 201.752,53.563 233.345,57.229 234.813,51.909 209.859,49.012 223.348,0.77 "/>
<path fill="#ffffff" d="M288.514,49.734c7.635,4.598,13.539,3.58,17.584-3.134c3.196-5.16,1.213-9.314-4.58-12.802l-8.556-5.153
	l-13.269,15.778L288.514,49.734z M290.732,21.025l13.89,8.364c8.228,4.954,12.062,12.735,7.135,20.62
	c-5.153,8.556-13.917,9.557-21.948,6.065l-1.086,27.868l-6.188-3.726l1.137-27.208l-7.438-4.48l-15.553,18.529l-5.726-3.448
	L290.732,21.025z"/>
<polygon fill="#ffffff" points="334.518,98.147 351.043,68.712 355.366,74.402 341.465,98.274 372.559,97.042 376.694,102.487
	338.086,103.734 317.193,114.972 313.151,109.648 "/>
<polygon fill="#ffffff" points="356.606,240.346 380.499,246.727 377.471,275.453 353.579,269.071 352.877,275.72 406.594,290.11
	407.293,283.463 382.959,276.881 385.987,248.155 410.322,254.737 411.023,248.092 357.307,233.699 "/>
<path fill="#ffffff" d="M364.672,315.023l27.699,19.043l-2.869,6.037l-27.771-19.076c-10.207-6.981-16.184-5.146-20.343,3.598
	c-3.531,7.425-1.929,13.717,7.306,20.065l29.127,19.977l-2.871,6.037l-29.894-20.512c-10-6.882-14.207-16.285-8.532-28.221
	C342.464,309.481,352.303,306.503,364.672,315.023"/>
<polygon fill="#ffffff" points="345.057,408.467 338.766,414.224 293.602,394.006 318.928,432.378 314.225,436.684 283.542,390.298
	289.096,385.215 335.969,406.161 309.672,366.386 314.375,362.08 "/>
<polygon fill="#ffffff" points="257.501,457.138 272.719,452.252 273.507,457.729 236.71,469.542 235.92,464.064 251.136,459.18
	243.4,409.695 249.766,407.653 "/>
<polygon fill="#ffffff" points="193.739,470.654 187.059,470.378 198.006,415.847 204.685,416.122 "/>
<polygon fill="#ffffff" points="138.951,459.976 131.212,456.396 132.43,406.935 106.812,445.104 101.025,442.428 131.968,396.226
	138.801,399.387 137.57,450.703 164.107,411.097 169.895,413.772 "/>
<path fill="#ffffff" d="M90.276,394.732c-13.29,10.814-32.095,10.467-42.571-2.405c-7.032-8.642-8.754-19.523-0.121-27.539
	l4.17,5.127c-5.891,5.783-4.98,12.868,0.161,19.186c8.486,10.428,22.793,9.386,33.997,0.27c9.119-7.421,11.198-17.037,3.584-26.395
	c-6.935-8.521-16.293-8.336-25.178-3.186L74.6,372.424l-4.873,2.775L55.421,357.62c16.442-11.201,28.985-9.422,38.345,2.08
	C103.854,372.096,101.243,385.811,90.276,394.732"/>
</svg>
